# Blender 4.2.0
# www.blender.org
mtllib simple_room.mtl
o Cube
v -0.699812 -0.025000 0.900000
v -0.699812 0.025000 0.900000
v -0.699812 -0.025000 -0.900000
v -0.699812 0.025000 -0.900000
v -0.499812 -0.025000 0.900000
v -0.499812 0.025000 0.900000
v -0.499812 -0.025000 -0.900000
v -0.499812 0.025000 -0.900000
v -0.489812 -0.025000 0.900000
v -0.489812 0.025000 0.900000
v -0.489812 -0.025000 -0.900000
v -0.489812 0.025000 -0.900000
v -0.289812 -0.025000 0.900000
v -0.289812 0.025000 0.900000
v -0.289812 -0.025000 -0.900000
v -0.289812 0.025000 -0.900000
v -0.279812 -0.025000 0.900000
v -0.279812 0.025000 0.900000
v -0.279812 -0.025000 -0.900000
v -0.279812 0.025000 -0.900000
v -0.079812 -0.025000 0.900000
v -0.079812 0.025000 0.900000
v -0.079812 -0.025000 -0.900000
v -0.079812 0.025000 -0.900000
v -0.069812 -0.025000 0.900000
v -0.069812 0.025000 0.900000
v -0.069812 -0.025000 -0.900000
v -0.069812 0.025000 -0.900000
v 0.130188 -0.025000 0.900000
v 0.130188 0.025000 0.900000
v 0.130188 -0.025000 -0.900000
v 0.130188 0.025000 -0.900000
v 0.140188 -0.025000 0.900000
v 0.140188 0.025000 0.900000
v 0.140188 -0.025000 -0.900000
v 0.140188 0.025000 -0.900000
v 0.340188 -0.025000 0.900000
v 0.340188 0.025000 0.900000
v 0.340188 -0.025000 -0.900000
v 0.340188 0.025000 -0.900000
v 0.350188 -0.025000 0.900000
v 0.350188 0.025000 0.900000
v 0.350188 -0.025000 -0.900000
v 0.350188 0.025000 -0.900000
v 0.550188 -0.025000 0.900000
v 0.550188 0.025000 0.900000
v 0.550188 -0.025000 -0.900000
v 0.550188 0.025000 -0.900000
v 0.560188 -0.025000 0.900000
v 0.560188 0.025000 0.900000
v 0.560188 -0.025000 -0.900000
v 0.560188 0.025000 -0.900000
v 0.760188 -0.025000 0.900000
v 0.760188 0.025000 0.900000
v 0.760188 -0.025000 -0.900000
v 0.760188 0.025000 -0.900000
v 0.770188 -0.025000 0.900000
v 0.770188 0.025000 0.900000
v 0.770188 -0.025000 -0.900000
v 0.770188 0.025000 -0.900000
v 0.970188 -0.025000 0.900000
v 0.970188 0.025000 0.900000
v 0.970188 -0.025000 -0.900000
v 0.970188 0.025000 -0.900000
vn -1.0000 -0.0000 -0.0000
vn -0.0000 -0.0000 -1.0000
vn 1.0000 -0.0000 -0.0000
vn -0.0000 -0.0000 1.0000
vn -0.0000 -1.0000 -0.0000
vn -0.0000 1.0000 -0.0000
vt 0.625000 0.000000
vt 0.375000 0.250000
vt 0.375000 0.000000
vt 0.625000 0.250000
vt 0.375000 0.500000
vt 0.625000 0.500000
vt 0.375000 0.750000
vt 0.625000 0.750000
vt 0.375000 1.000000
vt 0.125000 0.750000
vt 0.125000 0.500000
vt 0.875000 0.500000
vt 0.625000 1.000000
vt 0.875000 0.750000
s 0
f 2/1/1 3/2/1 1/3/1
f 4/4/2 7/5/2 3/2/2
f 8/6/3 5/7/3 7/5/3
f 6/8/4 1/9/4 5/7/4
f 7/5/5 1/10/5 3/11/5
f 4/12/6 6/8/6 8/6/6
f 10/1/1 11/2/1 9/3/1
f 12/4/2 15/5/2 11/2/2
f 16/6/3 13/7/3 15/5/3
f 14/8/4 9/9/4 13/7/4
f 15/5/5 9/10/5 11/11/5
f 12/12/6 14/8/6 16/6/6
f 18/1/1 19/2/1 17/3/1
f 20/4/2 23/5/2 19/2/2
f 24/6/3 21/7/3 23/5/3
f 22/8/4 17/9/4 21/7/4
f 23/5/5 17/10/5 19/11/5
f 20/12/6 22/8/6 24/6/6
f 26/1/1 27/2/1 25/3/1
f 28/4/2 31/5/2 27/2/2
f 32/6/3 29/7/3 31/5/3
f 30/8/4 25/9/4 29/7/4
f 31/5/5 25/10/5 27/11/5
f 28/12/6 30/8/6 32/6/6
f 34/1/1 35/2/1 33/3/1
f 36/4/2 39/5/2 35/2/2
f 40/6/3 37/7/3 39/5/3
f 38/8/4 33/9/4 37/7/4
f 39/5/5 33/10/5 35/11/5
f 36/12/6 38/8/6 40/6/6
f 42/1/1 43/2/1 41/3/1
f 44/4/2 47/5/2 43/2/2
f 48/6/3 45/7/3 47/5/3
f 46/8/4 41/9/4 45/7/4
f 47/5/5 41/10/5 43/11/5
f 44/12/6 46/8/6 48/6/6
f 50/1/1 51/2/1 49/3/1
f 52/4/2 55/5/2 51/2/2
f 56/6/3 53/7/3 55/5/3
f 54/8/4 49/9/4 53/7/4
f 55/5/5 49/10/5 51/11/5
f 52/12/6 54/8/6 56/6/6
f 58/1/1 59/2/1 57/3/1
f 60/4/2 63/5/2 59/2/2
f 64/6/3 61/7/3 63/5/3
f 62/8/4 57/9/4 61/7/4
f 63/5/5 57/10/5 59/11/5
f 60/12/6 62/8/6 64/6/6
f 2/1/1 4/4/1 3/2/1
f 4/4/2 8/6/2 7/5/2
f 8/6/3 6/8/3 5/7/3
f 6/8/4 2/13/4 1/9/4
f 7/5/5 5/7/5 1/10/5
f 4/12/6 2/14/6 6/8/6
f 10/1/1 12/4/1 11/2/1
f 12/4/2 16/6/2 15/5/2
f 16/6/3 14/8/3 13/7/3
f 14/8/4 10/13/4 9/9/4
f 15/5/5 13/7/5 9/10/5
f 12/12/6 10/14/6 14/8/6
f 18/1/1 20/4/1 19/2/1
f 20/4/2 24/6/2 23/5/2
f 24/6/3 22/8/3 21/7/3
f 22/8/4 18/13/4 17/9/4
f 23/5/5 21/7/5 17/10/5
f 20/12/6 18/14/6 22/8/6
f 26/1/1 28/4/1 27/2/1
f 28/4/2 32/6/2 31/5/2
f 32/6/3 30/8/3 29/7/3
f 30/8/4 26/13/4 25/9/4
f 31/5/5 29/7/5 25/10/5
f 28/12/6 26/14/6 30/8/6
f 34/1/1 36/4/1 35/2/1
f 36/4/2 40/6/2 39/5/2
f 40/6/3 38/8/3 37/7/3
f 38/8/4 34/13/4 33/9/4
f 39/5/5 37/7/5 33/10/5
f 36/12/6 34/14/6 38/8/6
f 42/1/1 44/4/1 43/2/1
f 44/4/2 48/6/2 47/5/2
f 48/6/3 46/8/3 45/7/3
f 46/8/4 42/13/4 41/9/4
f 47/5/5 45/7/5 41/10/5
f 44/12/6 42/14/6 46/8/6
f 50/1/1 52/4/1 51/2/1
f 52/4/2 56/6/2 55/5/2
f 56/6/3 54/8/3 53/7/3
f 54/8/4 50/13/4 49/9/4
f 55/5/5 53/7/5 49/10/5
f 52/12/6 50/14/6 54/8/6
f 58/1/1 60/4/1 59/2/1
f 60/4/2 64/6/2 63/5/2
f 64/6/3 62/8/3 61/7/3
f 62/8/4 58/13/4 57/9/4
f 63/5/5 61/7/5 57/10/5
f 60/12/6 58/14/6 62/8/6
o Cube.001
v -0.899812 -0.025000 0.900000
v -0.899812 0.175000 0.900000
v -0.899812 -0.025000 -0.900000
v -0.899812 0.175000 -0.900000
v -0.699812 -0.025000 0.900000
v -0.699812 0.175000 0.900000
v -0.699812 -0.025000 -0.900000
v -0.699812 0.175000 -0.900000
vn -1.0000 -0.0000 -0.0000
vn -0.0000 -0.0000 -1.0000
vn 1.0000 -0.0000 -0.0000
vn -0.0000 -0.0000 1.0000
vn -0.0000 -1.0000 -0.0000
vn -0.0000 1.0000 -0.0000
vt 0.625000 0.000000
vt 0.375000 0.250000
vt 0.375000 0.000000
vt 0.625000 0.250000
vt 0.375000 0.500000
vt 0.625000 0.500000
vt 0.375000 0.750000
vt 0.625000 0.750000
vt 0.375000 1.000000
vt 0.125000 0.750000
vt 0.125000 0.500000
vt 0.875000 0.500000
vt 0.625000 1.000000
vt 0.875000 0.750000
s 0
f 66/15/7 67/16/7 65/17/7
f 68/18/8 71/19/8 67/16/8
f 72/20/9 69/21/9 71/19/9
f 70/22/10 65/23/10 69/21/10
f 71/19/11 65/24/11 67/25/11
f 68/26/12 70/22/12 72/20/12
f 66/15/7 68/18/7 67/16/7
f 68/18/8 72/20/8 71/19/8
f 72/20/9 70/22/9 69/21/9
f 70/22/10 66/27/10 65/23/10
f 71/19/11 69/21/11 65/24/11
f 68/26/12 66/28/12 70/22/12
o Cube.002
v -0.899812 -0.025000 -0.900000
v -0.899812 0.175000 -0.900000
v -0.899812 -0.025000 -1.100000
v -0.899812 0.175000 -1.100000
v 0.970188 -0.025000 -0.900000
v 0.970188 0.175000 -0.900000
v 0.970188 -0.025000 -1.100000
v 0.970188 0.175000 -1.100000
vn -1.0000 -0.0000 -0.0000
vn -0.0000 -0.0000 -1.0000
vn 1.0000 -0.0000 -0.0000
vn -0.0000 -0.0000 1.0000
vn -0.0000 -1.0000 -0.0000
vn -0.0000 1.0000 -0.0000
vt 0.625000 0.000000
vt 0.375000 0.250000
vt 0.375000 0.000000
vt 0.625000 0.250000
vt 0.375000 0.500000
vt 0.625000 0.500000
vt 0.375000 0.750000
vt 0.625000 0.750000
vt 0.375000 1.000000
vt 0.125000 0.750000
vt 0.125000 0.500000
vt 0.875000 0.500000
vt 0.625000 1.000000
vt 0.875000 0.750000
s 0
f 74/29/13 75/30/13 73/31/13
f 76/32/14 79/33/14 75/30/14
f 80/34/15 77/35/15 79/33/15
f 78/36/16 73/37/16 77/35/16
f 79/33/17 73/38/17 75/39/17
f 76/40/18 78/36/18 80/34/18
f 74/29/13 76/32/13 75/30/13
f 76/32/14 80/34/14 79/33/14
f 80/34/15 78/36/15 77/35/15
f 78/36/16 74/41/16 73/37/16
f 79/33/17 77/35/17 73/38/17
f 76/40/18 74/42/18 78/36/18
o Cube.003
v -0.849812 0.175000 0.900000
v -0.849812 1.975000 0.900000
v -0.849812 0.175000 -0.950000
v -0.849812 1.975000 -0.950000
v -0.749812 0.175000 0.900000
v -0.749812 1.975000 0.900000
v -0.749812 0.175000 -0.950000
v -0.749812 1.975000 -0.950000
vn -1.0000 -0.0000 -0.0000
vn -0.0000 -0.0000 -1.0000
vn 1.0000 -0.0000 -0.0000
vn -0.0000 -0.0000 1.0000
vn -0.0000 -1.0000 -0.0000
vn -0.0000 1.0000 -0.0000
vt 0.625000 0.000000
vt 0.375000 0.250000
vt 0.375000 0.000000
vt 0.625000 0.250000
vt 0.375000 0.500000
vt 0.625000 0.500000
vt 0.375000 0.750000
vt 0.625000 0.750000
vt 0.375000 1.000000
vt 0.125000 0.750000
vt 0.125000 0.500000
vt 0.875000 0.500000
vt 0.625000 1.000000
vt 0.875000 0.750000
s 0
f 82/43/19 83/44/19 81/45/19
f 84/46/20 87/47/20 83/44/20
f 88/48/21 85/49/21 87/47/21
f 86/50/22 81/51/22 85/49/22
f 87/47/23 81/52/23 83/53/23
f 84/54/24 86/50/24 88/48/24
f 82/43/19 84/46/19 83/44/19
f 84/46/20 88/48/20 87/47/20
f 88/48/21 86/50/21 85/49/21
f 86/50/22 82/55/22 81/51/22
f 87/47/23 85/49/23 81/52/23
f 84/54/24 82/56/24 86/50/24
o Cube.004
v -0.849812 0.174999 -0.950000
v -0.849812 1.974999 -0.950000
v -0.849812 0.174999 -1.050000
v -0.849812 1.974999 -1.050000
v 0.970188 0.174999 -0.950000
v 0.970188 1.974999 -0.950000
v 0.970188 0.174999 -1.050000
v 0.970188 1.974999 -1.050000
vn -1.0000 -0.0000 -0.0000
vn -0.0000 -0.0000 -1.0000
vn 1.0000 -0.0000 -0.0000
vn -0.0000 -0.0000 1.0000
vn -0.0000 -1.0000 -0.0000
vn -0.0000 1.0000 -0.0000
vt 0.625000 0.000000
vt 0.375000 0.250000
vt 0.375000 0.000000
vt 0.625000 0.250000
vt 0.375000 0.500000
vt 0.625000 0.500000
vt 0.375000 0.750000
vt 0.625000 0.750000
vt 0.375000 1.000000
vt 0.125000 0.750000
vt 0.125000 0.500000
vt 0.875000 0.500000
vt 0.625000 1.000000
vt 0.875000 0.750000
s 0
f 90/57/25 91/58/25 89/59/25
f 92/60/26 95/61/26 91/58/26
f 96/62/27 93/63/27 95/61/27
f 94/64/28 89/65/28 93/63/28
f 95/61/29 89/66/29 91/67/29
f 92/68/30 94/64/30 96/62/30
f 90/57/25 92/60/25 91/58/25
f 92/60/26 96/62/26 95/61/26
f 96/62/27 94/64/27 93/63/27
f 94/64/28 90/69/28 89/65/28
f 95/61/29 93/63/29 89/66/29
f 92/68/30 90/70/30 94/64/30
o Cube.005
v -0.699812 0.025000 -0.107573
v -0.699812 0.564934 -0.107573
v -0.699812 0.025000 -0.647507
v -0.699812 0.564934 -0.647507
v -0.246279 0.025000 -0.107573
v -0.246279 0.564934 -0.107573
v -0.246279 0.025000 -0.647507
v -0.246279 0.564934 -0.647507
v -0.699812 0.294967 -0.107573
v -0.699812 0.294967 -0.647507
v -0.246279 0.294967 -0.647507
v -0.246279 0.294967 -0.107573
v -0.246279 0.329732 -0.612742
v -0.246279 0.530169 -0.612742
v -0.246279 0.530169 -0.142338
v -0.246279 0.329732 -0.142338
v -0.246279 0.059765 -0.612742
v -0.246279 0.260202 -0.612742
v -0.246279 0.260202 -0.142338
v -0.246279 0.059765 -0.142338
v -0.209708 0.530169 -0.612742
v -0.209708 0.329732 -0.612742
v -0.209708 0.329732 -0.142338
v -0.209708 0.530169 -0.142338
v -0.209708 0.260202 -0.612742
v -0.209708 0.059765 -0.612742
v -0.209708 0.059765 -0.142338
v -0.209708 0.260202 -0.142338
vn -1.0000 -0.0000 -0.0000
vn -0.0000 -0.0000 -1.0000
vn -0.0000 -1.0000 -0.0000
vn -0.0000 -0.0000 1.0000
vn -0.0000 1.0000 -0.0000
vn 1.0000 -0.0000 -0.0000
vt 0.625000 0.000000
vt 0.500000 0.250000
vt 0.500000 0.000000
vt 0.625000 0.250000
vt 0.500000 0.500000
vt 0.516097 0.516097
vt 0.516097 0.733903
vt 0.625000 0.750000
vt 0.500000 1.000000
vt 0.500000 0.750000
vt 0.375000 0.500000
vt 0.125000 0.750000
vt 0.125000 0.500000
vt 0.875000 0.500000
vt 0.625000 0.500000
vt 0.375000 1.000000
vt 0.375000 0.750000
vt 0.608903 0.733903
vt 0.375000 0.250000
vt 0.375000 0.000000
vt 0.608903 0.516097
vt 0.391097 0.516097
vt 0.483903 0.516097
vt 0.483903 0.733903
vt 0.391097 0.733903
vt 0.625000 1.000000
vt 0.875000 0.750000
s 0
f 98/71/31 106/72/31 105/73/31
f 100/74/32 107/75/32 106/72/32
f 109/76/33 119/77/33 112/77/33
f 102/78/34 105/79/34 108/80/34
f 103/81/33 97/82/33 99/83/33
f 100/84/35 102/78/35 104/85/35
f 108/80/34 97/86/34 101/87/34
f 112/77/34 120/88/34 111/88/34
f 106/72/32 103/81/32 99/89/32
f 105/73/31 99/89/31 97/90/31
f 104/85/36 109/76/36 107/75/36
f 102/78/36 110/91/36 104/85/36
f 108/80/36 111/88/36 102/78/36
f 107/75/36 112/77/36 108/80/36
f 107/75/36 113/92/36 103/81/36
f 108/80/36 114/93/36 107/75/36
f 101/87/36 115/94/36 108/80/36
f 103/81/36 116/95/36 101/87/36
f 117/91/36 119/77/36 118/76/36
f 121/93/36 123/95/36 122/92/36
f 115/94/35 121/93/35 114/93/35
f 114/93/32 122/92/32 113/92/32
f 111/88/35 117/91/35 110/91/35
f 116/95/34 124/94/34 115/94/34
f 110/91/32 118/76/32 109/76/32
f 113/92/33 123/95/33 116/95/33
f 98/71/31 100/74/31 106/72/31
f 100/74/32 104/85/32 107/75/32
f 109/76/33 118/76/33 119/77/33
f 102/78/34 98/96/34 105/79/34
f 103/81/33 101/87/33 97/82/33
f 100/84/35 98/97/35 102/78/35
f 108/80/34 105/79/34 97/86/34
f 112/77/34 119/77/34 120/88/34
f 106/72/32 107/75/32 103/81/32
f 105/73/31 106/72/31 99/89/31
f 104/85/36 110/91/36 109/76/36
f 102/78/36 111/88/36 110/91/36
f 108/80/36 112/77/36 111/88/36
f 107/75/36 109/76/36 112/77/36
f 107/75/36 114/93/36 113/92/36
f 108/80/36 115/94/36 114/93/36
f 101/87/36 116/95/36 115/94/36
f 103/81/36 113/92/36 116/95/36
f 117/91/36 120/88/36 119/77/36
f 121/93/36 124/94/36 123/95/36
f 115/94/35 124/94/35 121/93/35
f 114/93/32 121/93/32 122/92/32
f 111/88/35 120/88/35 117/91/35
f 116/95/34 123/95/34 124/94/34
f 110/91/32 117/91/32 118/76/32
f 113/92/33 122/92/33 123/95/33
o Cylinder
v 0.550251 0.025000 -0.700093
v 0.550251 0.444873 -0.748797
v 0.611952 0.025000 -0.687820
v 0.630590 0.444873 -0.732816
v 0.664260 0.025000 -0.652869
v 0.698699 0.444873 -0.687308
v 0.699211 0.025000 -0.600561
v 0.744207 0.444873 -0.619200
v 0.711484 0.025000 -0.538860
v 0.760188 0.444873 -0.538860
v 0.699211 0.025000 -0.477160
v 0.744207 0.444873 -0.458521
v 0.664260 0.025000 -0.424852
v 0.698699 0.444873 -0.390413
v 0.611952 0.025000 -0.389901
v 0.630590 0.444873 -0.344905
v 0.550251 0.025000 -0.377628
v 0.550251 0.444873 -0.328924
v 0.488550 0.025000 -0.389901
v 0.469912 0.444873 -0.344905
v 0.436243 0.025000 -0.424852
v 0.401804 0.444873 -0.390413
v 0.401292 0.025000 -0.477160
v 0.356295 0.444873 -0.458521
v 0.389019 0.025000 -0.538860
v 0.340315 0.444873 -0.538860
v 0.401292 0.025000 -0.600561
v 0.356295 0.444873 -0.619200
v 0.436243 0.025000 -0.652869
v 0.401804 0.444873 -0.687308
v 0.488550 0.025000 -0.687820
v 0.469912 0.444873 -0.732816
vn 0.1938 -0.1130 -0.9745
vn 0.5520 -0.1130 -0.8261
vn 0.8261 -0.1130 -0.5520
vn 0.9745 -0.1130 -0.1938
vn 0.9745 -0.1130 0.1938
vn 0.8261 -0.1130 0.5520
vn 0.5520 -0.1130 0.8261
vn 0.1938 -0.1130 0.9745
vn -0.1938 -0.1130 0.9745
vn -0.5520 -0.1130 0.8261
vn -0.8261 -0.1130 0.5520
vn -0.9745 -0.1130 0.1938
vn -0.9745 -0.1130 -0.1938
vn -0.8261 -0.1130 -0.5520
vn -0.0000 1.0000 -0.0000
vn -0.5520 -0.1130 -0.8261
vn -0.1938 -0.1130 -0.9745
vn -0.0000 -1.0000 -0.0000
vt 1.000000 0.500000
vt 0.937500 1.000000
vt 0.937500 0.500000
vt 0.875000 1.000000
vt 0.875000 0.500000
vt 0.812500 1.000000
vt 0.812500 0.500000
vt 0.750000 0.500000
vt 0.750000 1.000000
vt 0.687500 0.500000
vt 0.687500 1.000000
vt 0.625000 0.500000
vt 0.625000 1.000000
vt 0.562500 0.500000
vt 0.562500 1.000000
vt 0.500000 0.500000
vt 0.500000 1.000000
vt 0.437500 0.500000
vt 0.437500 1.000000
vt 0.375000 0.500000
vt 0.375000 1.000000
vt 0.312500 0.500000
vt 0.312500 1.000000
vt 0.250000 0.500000
vt 0.250000 1.000000
vt 0.187500 0.500000
vt 0.187500 1.000000
vt 0.125000 0.500000
vt 0.080294 0.080294
vt 0.419706 0.080294
vt 0.419706 0.419706
vt 0.125000 1.000000
vt 0.062500 0.500000
vt 0.062500 1.000000
vt 0.000000 0.500000
vt 0.841844 0.028269
vt 0.528269 0.158156
vt 0.658156 0.471731
vt 1.000000 1.000000
vt 0.341844 0.471731
vt 0.250000 0.490000
vt 0.158156 0.471731
vt 0.080294 0.419706
vt 0.028269 0.341844
vt 0.010000 0.250000
vt 0.028269 0.158156
vt 0.158156 0.028269
vt 0.250000 0.010000
vt 0.341844 0.028269
vt 0.471731 0.158156
vt 0.490000 0.250000
vt 0.471731 0.341844
vt 0.000000 1.000000
vt 0.750000 0.490000
vt 0.841844 0.471731
vt 0.919706 0.419706
vt 0.971731 0.341844
vt 0.990000 0.250000
vt 0.971731 0.158156
vt 0.919706 0.080294
vt 0.750000 0.010000
vt 0.658156 0.028269
vt 0.580294 0.080294
vt 0.510000 0.250000
vt 0.528269 0.341844
vt 0.580294 0.419706
s 0
f 125/98/37 128/99/37 127/100/37
f 127/100/38 130/101/38 129/102/38
f 129/102/39 132/103/39 131/104/39
f 132/103/40 133/105/40 131/104/40
f 134/106/41 135/107/41 133/105/41
f 136/108/42 137/109/42 135/107/42
f 138/110/43 139/111/43 137/109/43
f 140/112/44 141/113/44 139/111/44
f 142/114/45 143/115/45 141/113/45
f 144/116/46 145/117/46 143/115/46
f 146/118/47 147/119/47 145/117/47
f 148/120/48 149/121/48 147/119/48
f 150/122/49 151/123/49 149/121/49
f 152/124/50 153/125/50 151/123/50
f 146/126/51 138/127/51 130/128/51
f 154/129/52 155/130/52 153/125/52
f 156/131/53 125/132/53 155/130/53
f 139/133/54 147/134/54 155/135/54
f 125/98/37 126/136/37 128/99/37
f 127/100/38 128/99/38 130/101/38
f 129/102/39 130/101/39 132/103/39
f 132/103/40 134/106/40 133/105/40
f 134/106/41 136/108/41 135/107/41
f 136/108/42 138/110/42 137/109/42
f 138/110/43 140/112/43 139/111/43
f 140/112/44 142/114/44 141/113/44
f 142/114/45 144/116/45 143/115/45
f 144/116/46 146/118/46 145/117/46
f 146/118/47 148/120/47 147/119/47
f 148/120/48 150/122/48 149/121/48
f 150/122/49 152/124/49 151/123/49
f 152/124/50 154/129/50 153/125/50
f 130/128/51 128/137/51 126/138/51
f 126/138/51 156/139/51 154/140/51
f 154/140/51 152/141/51 150/142/51
f 150/142/51 148/143/51 146/126/51
f 146/126/51 144/144/51 142/145/51
f 142/145/51 140/146/51 138/127/51
f 138/127/51 136/147/51 134/148/51
f 134/148/51 132/149/51 130/128/51
f 130/128/51 126/138/51 154/140/51
f 154/140/51 150/142/51 146/126/51
f 146/126/51 142/145/51 138/127/51
f 138/127/51 134/148/51 130/128/51
f 130/128/51 154/140/51 146/126/51
f 154/129/52 156/131/52 155/130/52
f 156/131/53 126/150/53 125/132/53
f 155/135/54 125/151/54 127/152/54
f 127/152/54 129/153/54 131/154/54
f 131/154/54 133/155/54 135/156/54
f 135/156/54 137/157/54 139/133/54
f 139/133/54 141/158/54 143/159/54
f 143/159/54 145/160/54 147/134/54
f 147/134/54 149/161/54 151/162/54
f 151/162/54 153/163/54 155/135/54
f 155/135/54 127/152/54 131/154/54
f 131/154/54 135/156/54 139/133/54
f 139/133/54 143/159/54 147/134/54
f 147/134/54 151/162/54 155/135/54
f 155/135/54 131/154/54 139/133/54
o Cube.006
v -0.749812 1.333643 0.599324
v -0.749812 1.383643 0.599324
v -0.749812 1.333643 -0.599324
v -0.749812 1.383643 -0.599324
v -0.499812 1.333643 0.599324
v -0.499812 1.383643 0.599324
v -0.499812 1.333643 -0.599324
v -0.499812 1.383643 -0.599324
vn -1.0000 -0.0000 -0.0000
vn -0.0000 -0.0000 -1.0000
vn 1.0000 -0.0000 -0.0000
vn -0.0000 -0.0000 1.0000
vn -0.0000 -1.0000 -0.0000
vn -0.0000 1.0000 -0.0000
vt 0.625000 0.000000
vt 0.375000 0.250000
vt 0.375000 0.000000
vt 0.625000 0.250000
vt 0.375000 0.500000
vt 0.625000 0.500000
vt 0.375000 0.750000
vt 0.625000 0.750000
vt 0.375000 1.000000
vt 0.125000 0.750000
vt 0.125000 0.500000
vt 0.875000 0.500000
vt 0.625000 1.000000
vt 0.875000 0.750000
s 0
f 158/164/55 159/165/55 157/166/55
f 160/167/56 163/168/56 159/165/56
f 164/169/57 161/170/57 163/168/57
f 162/171/58 157/172/58 161/170/58
f 163/168/59 157/173/59 159/174/59
f 160/175/60 162/171/60 164/169/60
f 158/164/55 160/167/55 159/165/55
f 160/167/56 164/169/56 163/168/56
f 164/169/57 162/171/57 161/170/57
f 162/171/58 158/176/58 157/172/58
f 163/168/59 161/170/59 157/173/59
f 160/175/60 158/177/60 162/171/60
o Cube.007
v -0.749813 1.666349 -0.009079
v -0.749813 1.666349 0.040921
v -0.557500 1.666349 -0.009079
v -0.557500 1.666349 0.040921
v -0.749813 1.383643 -0.009079
v -0.749813 1.383643 0.040921
v -0.557500 1.383643 -0.009079
v -0.557500 1.383643 0.040921
v -0.749813 1.666349 -0.071579
v -0.749813 1.666349 -0.021579
v -0.557500 1.666349 -0.071579
v -0.557500 1.666349 -0.021579
v -0.749813 1.383643 -0.071579
v -0.749813 1.383643 -0.021579
v -0.557500 1.383643 -0.071579
v -0.557500 1.383643 -0.021579
v -0.749813 1.666349 -0.134079
v -0.749813 1.666349 -0.084079
v -0.557500 1.666349 -0.134079
v -0.557500 1.666349 -0.084079
v -0.749813 1.383643 -0.134079
v -0.749813 1.383643 -0.084079
v -0.557500 1.383643 -0.134079
v -0.557500 1.383643 -0.084079
vn -0.0000 1.0000 -0.0000
vn 1.0000 -0.0000 -0.0000
vn -0.0000 -1.0000 -0.0000
vn -1.0000 -0.0000 -0.0000
vn -0.0000 -0.0000 -1.0000
vn -0.0000 -0.0000 1.0000
vt 0.625000 0.000000
vt 0.375000 0.250000
vt 0.375000 0.000000
vt 0.625000 0.250000
vt 0.375000 0.500000
vt 0.625000 0.500000
vt 0.375000 0.750000
vt 0.625000 0.750000
vt 0.375000 1.000000
vt 0.125000 0.750000
vt 0.125000 0.500000
vt 0.875000 0.500000
vt 0.625000 1.000000
vt 0.875000 0.750000
s 0
f 166/178/61 167/179/61 165/180/61
f 168/181/62 171/182/62 167/179/62
f 172/183/63 169/184/63 171/182/63
f 170/185/64 165/186/64 169/184/64
f 171/182/65 165/187/65 167/188/65
f 168/189/66 170/185/66 172/183/66
f 174/178/61 175/179/61 173/180/61
f 176/181/62 179/182/62 175/179/62
f 180/183/63 177/184/63 179/182/63
f 178/185/64 173/186/64 177/184/64
f 179/182/65 173/187/65 175/188/65
f 176/189/66 178/185/66 180/183/66
f 182/178/61 183/179/61 181/180/61
f 184/181/62 187/182/62 183/179/62
f 188/183/63 185/184/63 187/182/63
f 186/185/64 181/186/64 185/184/64
f 187/182/65 181/187/65 183/188/65
f 184/189/66 186/185/66 188/183/66
f 166/178/61 168/181/61 167/179/61
f 168/181/62 172/183/62 171/182/62
f 172/183/63 170/185/63 169/184/63
f 170/185/64 166/190/64 165/186/64
f 171/182/65 169/184/65 165/187/65
f 168/189/66 166/191/66 170/185/66
f 174/178/61 176/181/61 175/179/61
f 176/181/62 180/183/62 179/182/62
f 180/183/63 178/185/63 177/184/63
f 178/185/64 174/190/64 173/186/64
f 179/182/65 177/184/65 173/187/65
f 176/189/66 174/191/66 178/185/66
f 182/178/61 184/181/61 183/179/61
f 184/181/62 188/183/62 187/182/62
f 188/183/63 186/185/63 185/184/63
f 186/185/64 182/190/64 181/186/64
f 187/182/65 185/184/65 181/187/65
f 184/189/66 182/191/66 186/185/66
o Cube.008
v -0.749813 1.631181 0.040921
v -0.749813 1.655333 0.084701
v -0.557500 1.631181 0.040921
v -0.557500 1.655333 0.084701
v -0.749813 1.383643 0.177478
v -0.749813 1.407795 0.221258
v -0.557500 1.383643 0.177478
v -0.557500 1.407795 0.221258
vn -0.0000 0.8756 -0.4830
vn 1.0000 -0.0000 -0.0000
vn -0.0000 -0.8756 0.4830
vn -1.0000 -0.0000 -0.0000
vn -0.0000 -0.4830 -0.8756
vn -0.0000 0.4830 0.8756
vt 0.625000 0.000000
vt 0.375000 0.250000
vt 0.375000 0.000000
vt 0.625000 0.250000
vt 0.375000 0.500000
vt 0.625000 0.500000
vt 0.375000 0.750000
vt 0.625000 0.750000
vt 0.375000 1.000000
vt 0.125000 0.750000
vt 0.125000 0.500000
vt 0.875000 0.500000
vt 0.625000 1.000000
vt 0.875000 0.750000
s 0
f 190/192/67 191/193/67 189/194/67
f 192/195/68 195/196/68 191/193/68
f 196/197/69 193/198/69 195/196/69
f 194/199/70 189/200/70 193/198/70
f 195/196/71 189/201/71 191/202/71
f 192/203/72 194/199/72 196/197/72
f 190/192/67 192/195/67 191/193/67
f 192/195/68 196/197/68 195/196/68
f 196/197/69 194/199/69 193/198/69
f 194/199/70 190/204/70 189/200/70
f 195/196/71 193/198/71 189/201/71
f 192/203/72 190/205/72 194/199/72
